<svg width="25" height="25" viewBox="0 0 25 25" fill="none" xmlns="http://www.w3.org/2000/svg">
<path d="M4.65033 10.1081L3.94333 10.8151L3.23633 10.1081L3.94333 9.40112L4.65033 10.1081ZM21.6503 18.1081C21.6503 18.3733 21.545 18.6277 21.3574 18.8152C21.1699 19.0028 20.9155 19.1081 20.6503 19.1081C20.3851 19.1081 20.1308 19.0028 19.9432 18.8152C19.7557 18.6277 19.6503 18.3733 19.6503 18.1081H21.6503ZM8.94333 15.8151L3.94333 10.8151L5.35733 9.40112L10.3573 14.4011L8.94333 15.8151ZM3.94333 9.40112L8.94333 4.40112L10.3573 5.81512L5.35733 10.8151L3.94333 9.40112ZM4.65033 9.10812H14.6503V11.1081H4.65033V9.10812ZM21.6503 16.1081V18.1081H19.6503V16.1081H21.6503ZM14.6503 9.10812C16.5068 9.10812 18.2873 9.84562 19.6001 11.1584C20.9128 12.4711 21.6503 14.2516 21.6503 16.1081H19.6503C19.6503 14.782 19.1235 13.5103 18.1859 12.5726C17.2482 11.6349 15.9764 11.1081 14.6503 11.1081V9.10812Z" fill="white"/>
</svg>
