<svg width="16" height="16" viewBox="0 0 16 16" fill="none" xmlns="http://www.w3.org/2000/svg">
<path d="M13.6492 8.38334C13.7561 8.12521 13.7561 7.79709 13.7561 7.14209C13.7561 6.48709 13.7561 6.15896 13.6492 5.90084C13.5786 5.73017 13.475 5.5751 13.3443 5.44448C13.2137 5.31387 13.0586 5.21026 12.888 5.13959C12.6299 5.03271 12.3017 5.03271 11.6467 5.03271H7.5686C6.7811 5.03271 6.38735 5.03271 6.08673 5.18584C5.82189 5.3207 5.60659 5.536 5.47173 5.80084C5.3186 6.10084 5.3186 6.49459 5.3186 7.28272V11.3608C5.3186 12.0158 5.3186 12.344 5.42548 12.6021C5.5686 12.9465 5.84235 13.2208 6.18673 13.3633C6.44485 13.4702 6.77298 13.4702 7.42798 13.4702C8.08298 13.4702 8.4111 13.4702 8.66923 13.3633M13.6492 8.38334C13.5786 8.55401 13.475 8.70908 13.3443 8.8397C13.2137 8.97031 13.0586 9.07392 12.888 9.14459C12.6299 9.25147 12.3017 9.25146 11.6467 9.25146C10.9917 9.25146 10.6636 9.25146 10.4055 9.35834C10.2348 9.42901 10.0797 9.53262 9.94912 9.66323C9.8185 9.79385 9.7149 9.94892 9.64423 10.1196C9.53735 10.3777 9.53735 10.7058 9.53735 11.3608C9.53735 12.0158 9.53735 12.344 9.43048 12.6021C9.35981 12.7728 9.2562 12.9278 9.12559 13.0584C8.99497 13.1891 8.8399 13.2927 8.66923 13.3633M13.6492 8.38334C13.3131 9.5427 12.6947 10.6006 11.8494 11.4623C11.004 12.324 9.95818 12.9626 8.80548 13.3208L8.66923 13.3633M10.9436 5.03271V4.47021C10.9436 3.68271 10.9436 3.28896 10.7905 2.98834C10.6558 2.7236 10.4407 2.50831 10.1761 2.37334C9.87485 2.22021 9.4811 2.22021 8.6936 2.22021H4.7561C3.9686 2.22021 3.57485 2.22021 3.27423 2.37334C3.00939 2.5082 2.79409 2.7235 2.65923 2.98834C2.5061 3.28834 2.5061 3.68209 2.5061 4.47021V8.40771C2.5061 9.19521 2.5061 9.58896 2.65923 9.88959C2.79423 10.1546 3.00923 10.3696 3.27423 10.5046C3.57423 10.6577 3.9686 10.6577 4.75673 10.6577H5.3186" stroke="#DABDFF" stroke-width="1.5" stroke-linecap="round" stroke-linejoin="round"/>
</svg>
