<svg width="41" height="41" viewBox="0 0 41 41" fill="none" xmlns="http://www.w3.org/2000/svg">
<path d="M28.0855 23.8633C28.4748 22.918 28.6861 21.906 28.6861 20.7939C28.6861 19.9932 28.5637 19.2258 28.3524 18.5141C27.6295 18.6809 26.8733 18.7699 26.0837 18.7699C24.4667 18.7716 22.8729 18.3845 21.4368 17.6413C20.0006 16.8981 18.7643 15.8205 17.8318 14.4993C16.8353 16.9135 14.9534 18.8551 12.5715 19.9265C12.527 20.2045 12.527 20.5048 12.527 20.7939C12.527 21.8557 12.7362 22.907 13.1425 23.8879C13.5488 24.8689 14.1443 25.7601 14.8951 26.5109C16.4113 28.0272 18.4678 28.879 20.6121 28.879C21.7798 28.879 22.9031 28.6232 23.9151 28.1672C24.549 29.3794 24.8381 29.98 24.8159 29.98C22.992 30.5916 21.5796 30.8919 20.6121 30.8919C17.9208 30.8919 15.3518 29.8354 13.4612 27.9337C12.3102 26.7881 11.4553 25.3797 10.9701 23.83H9.49097V18.7699H10.7032C11.0704 16.9822 11.9148 15.3272 13.1467 13.9806C14.3786 12.6341 15.952 11.6461 17.7001 11.1216C19.4481 10.5971 21.3055 10.5555 23.0753 11.0014C24.845 11.4473 26.461 12.364 27.7519 13.6541C29.1529 15.0505 30.1088 16.8306 30.4988 18.7699H31.7332V23.83H31.6665L27.7074 27.4666L21.8132 26.7993V24.9421H27.1847L28.0855 23.8633ZM17.576 20.5381C17.9097 20.5381 18.2322 20.6716 18.4657 20.9162C18.7004 21.1529 18.8321 21.4726 18.8321 21.8059C18.8321 22.1392 18.7004 22.459 18.4657 22.6956C18.2322 22.9292 17.9097 23.0626 17.576 23.0626C16.8754 23.0626 16.3082 22.5066 16.3082 21.8059C16.3082 21.1053 16.8754 20.5381 17.576 20.5381ZM23.6371 20.5381C24.3377 20.5381 24.8937 21.1053 24.8937 21.8059C24.8937 22.5066 24.3377 23.0626 23.6371 23.0626C22.9364 23.0626 22.3692 22.5066 22.3692 21.8059C22.3692 21.4697 22.5028 21.1472 22.7406 20.9095C22.9783 20.6717 23.3008 20.5381 23.6371 20.5381Z" fill="#8D8D8B"/>
</svg>
