<svg width="41" height="41" viewBox="0 0 41 41" fill="currentColor" xmlns="http://www.w3.org/2000/svg">
<mask id="path-1-inside-1_0_1752" fill="currentColor">
<path fill-rule="evenodd" clip-rule="evenodd" d="M13.6387 22.3209L14.7098 21.2498V26.8919V26.892V27.8919H26.7098V26.892V26.8919V21.2498L27.7809 22.3209L28.488 21.6137L21.4169 14.5427L20.7098 13.8356L20.0027 14.5427L12.9316 21.6137L13.6387 22.3209ZM15.7098 26.8919V20.2498L20.7098 15.2498L25.7098 20.2498V26.8919H22.7098V22.892V21.892H18.7098V22.892V26.8919H15.7098ZM19.7098 22.892V26.8919H21.7098V22.892H19.7098Z"/>
</mask>
<path fill-rule="evenodd" clip-rule="evenodd" d="M13.6387 22.3209L14.7098 21.2498V26.8919V26.892V27.8919H26.7098V26.892V26.8919V21.2498L27.7809 22.3209L28.488 21.6137L21.4169 14.5427L20.7098 13.8356L20.0027 14.5427L12.9316 21.6137L13.6387 22.3209ZM15.7098 26.8919V20.2498L20.7098 15.2498L25.7098 20.2498V26.8919H22.7098V22.892V21.892H18.7098V22.892V26.8919H15.7098ZM19.7098 22.892V26.8919H21.7098V22.892H19.7098Z" fill="currentColor"/>
<path d="M14.7098 21.2498H16.7098V16.4214L13.2956 19.8356L14.7098 21.2498ZM13.6387 22.3209L12.2245 23.7351L13.6387 25.1493L15.053 23.7351L13.6387 22.3209ZM14.7098 27.8919H12.7098V29.8919H14.7098V27.8919ZM26.7098 27.8919V29.8919H28.7098V27.8919H26.7098ZM26.7098 21.2498L28.124 19.8356L24.7098 16.4214V21.2498H26.7098ZM27.7809 22.3209L26.3667 23.7351L27.7809 25.1493L29.1951 23.7351L27.7809 22.3209ZM28.488 21.6137L29.9022 23.028L31.3164 21.6137L29.9022 20.1995L28.488 21.6137ZM21.4169 14.5427L20.0027 15.9569L21.4169 14.5427ZM20.7098 13.8356L22.124 12.4214L20.7098 11.0071L19.2956 12.4214L20.7098 13.8356ZM20.0027 14.5427L21.4169 15.9569H21.4169L20.0027 14.5427ZM12.9316 21.6137L11.5174 20.1995L10.1032 21.6137L11.5174 23.028L12.9316 21.6137ZM15.7098 20.2498L14.2956 18.8356L13.7098 19.4214V20.2498H15.7098ZM15.7098 26.8919H13.7098V28.8919H15.7098V26.8919ZM20.7098 15.2498L22.124 13.8356L20.7098 12.4214L19.2956 13.8356L20.7098 15.2498ZM25.7098 20.2498H27.7098V19.4214L27.124 18.8356L25.7098 20.2498ZM25.7098 26.8919V28.8919H27.7098V26.8919H25.7098ZM22.7098 26.8919H20.7098V28.8919H22.7098V26.8919ZM22.7098 21.892H24.7098V19.892H22.7098V21.892ZM18.7098 21.892V19.892H16.7098V21.892H18.7098ZM18.7098 26.8919V28.8919H20.7098V26.8919H18.7098ZM19.7098 22.892V20.892H17.7098V22.892H19.7098ZM19.7098 26.8919H17.7098V28.8919H19.7098V26.8919ZM21.7098 26.8919V28.8919H23.7098V26.8919H21.7098ZM21.7098 22.892H23.7098V20.892H21.7098V22.892ZM13.2956 19.8356L12.2245 20.9066L15.053 23.7351L16.124 22.664L13.2956 19.8356ZM16.7098 26.8919V21.2498H12.7098V26.8919H16.7098ZM16.7098 26.892V26.8919H12.7098V26.892H16.7098ZM16.7098 27.8919V26.892H12.7098V27.8919H16.7098ZM26.7098 25.8919H14.7098V29.8919H26.7098V25.8919ZM24.7098 26.892V27.8919H28.7098V26.892H24.7098ZM24.7098 26.8919V26.892H28.7098V26.8919H24.7098ZM24.7098 21.2498V26.8919H28.7098V21.2498H24.7098ZM29.1951 20.9066L28.124 19.8356L25.2956 22.664L26.3667 23.7351L29.1951 20.9066ZM27.0738 20.1995L26.3667 20.9066L29.1951 23.7351L29.9022 23.028L27.0738 20.1995ZM20.0027 15.9569L27.0738 23.028L29.9022 20.1995L22.8311 13.1285L20.0027 15.9569ZM19.2956 15.2498L20.0027 15.9569L22.8311 13.1285L22.124 12.4214L19.2956 15.2498ZM21.4169 15.9569L22.124 15.2498L19.2956 12.4214L18.5885 13.1285L21.4169 15.9569ZM14.3459 23.028L21.4169 15.9569L18.5885 13.1285L11.5174 20.1995L14.3459 23.028ZM15.053 20.9066L14.3459 20.1995L11.5174 23.028L12.2245 23.7351L15.053 20.9066ZM13.7098 20.2498V26.8919H17.7098V20.2498H13.7098ZM19.2956 13.8356L14.2956 18.8356L17.124 21.664L22.124 16.664L19.2956 13.8356ZM27.124 18.8356L22.124 13.8356L19.2956 16.664L24.2956 21.664L27.124 18.8356ZM27.7098 26.8919V20.2498H23.7098V26.8919H27.7098ZM22.7098 28.8919H25.7098V24.8919H22.7098V28.8919ZM20.7098 22.892V26.8919H24.7098V22.892H20.7098ZM20.7098 21.892V22.892H24.7098V21.892H20.7098ZM18.7098 23.892H22.7098V19.892H18.7098V23.892ZM20.7098 22.892V21.892H16.7098V22.892H20.7098ZM20.7098 26.8919V22.892H16.7098V26.8919H20.7098ZM15.7098 28.8919H18.7098V24.8919H15.7098V28.8919ZM17.7098 22.892V26.8919H21.7098V22.892H17.7098ZM19.7098 28.8919H21.7098V24.8919H19.7098V28.8919ZM23.7098 26.8919V22.892H19.7098V26.8919H23.7098ZM21.7098 20.892H19.7098V24.892H21.7098V20.892Z" fill="currentColor" mask="url(#path-1-inside-1_0_1752)"/>
</svg>
