<svg width="21" height="22" viewBox="0 0 21 22" fill="none" xmlns="http://www.w3.org/2000/svg">
<path d="M13.3606 1.81108L6.70857 5.00508C6.2065 5.24977 5.63547 5.31405 5.09157 5.18708C4.86209 5.13017 4.63019 5.08345 4.39657 5.04708C2.57157 4.84008 1.43457 6.28408 1.43457 7.94508V8.85708C1.43457 10.5171 2.57157 11.9621 4.39657 11.7531C4.63044 11.7185 4.8624 11.6721 5.09157 11.6141C5.63558 11.4874 6.20662 11.5521 6.70857 11.7971L13.3606 14.9901C14.8876 15.7231 15.6516 16.0901 16.5026 15.8041C17.3546 15.5181 17.6466 14.9051 18.2306 13.6791C19.0231 12.0325 19.4346 10.2285 19.4346 8.40108C19.4346 6.57366 19.0231 4.7697 18.2306 3.12308C17.6466 1.89708 17.3546 1.28308 16.5026 0.998081C15.6516 0.712081 14.8876 1.07708 13.3606 1.81108Z" stroke="#1C002D" stroke-width="1.5" stroke-linecap="round" stroke-linejoin="round"/>
<path d="M5.93468 11.4001V5.40009M9.89268 19.6701L8.40168 20.9001C5.03968 18.2341 5.45068 16.9631 5.45068 11.9001H6.58468C7.04468 14.7601 8.12968 16.1161 9.62768 17.0971C10.5497 17.7011 10.7397 18.9721 9.89268 19.6701Z" stroke="#1C002D" stroke-width="1.5" stroke-linecap="round" stroke-linejoin="round"/>
</svg>
