<svg width="30" height="30" viewBox="0 0 30 30" fill="none" xmlns="http://www.w3.org/2000/svg">
<g clip-path="url(#clip0_0_198)">
<path d="M23.4332 16.6667V15C23.4332 14.558 23.2717 14.1341 22.9841 13.8215C22.6965 13.5089 22.3065 13.3333 21.8999 13.3333H6.56654C6.15987 13.3333 5.76986 13.5089 5.48231 13.8215C5.19475 14.1341 5.0332 14.558 5.0332 15V25C5.0332 25.442 5.19475 25.866 5.48231 26.1785C5.76986 26.4911 6.15987 26.6667 6.56654 26.6667H21.8999C22.3065 26.6667 22.6965 26.4911 22.9841 26.1785C23.2717 25.866 23.4332 25.442 23.4332 25V23.3333M23.4332 16.6667H17.2999C16.4865 16.6667 15.7065 17.0179 15.1314 17.643C14.5563 18.2681 14.2332 19.116 14.2332 20C14.2332 20.8841 14.5563 21.7319 15.1314 22.357C15.7065 22.9822 16.4865 23.3333 17.2999 23.3333H23.4332M23.4332 16.6667C24.2465 16.6667 25.0266 17.0179 25.6017 17.643C26.1768 18.2681 26.4999 19.116 26.4999 20C26.4999 20.8841 26.1768 21.7319 25.6017 22.357C25.0266 22.9822 24.2465 23.3333 23.4332 23.3333M9.6332 13.3333V8.33334C9.6332 7.00726 10.1178 5.73549 10.9805 4.79781C11.8432 3.86013 13.0132 3.33334 14.2332 3.33334C15.4532 3.33334 16.6232 3.86013 17.4859 4.79781C18.3486 5.73549 18.8332 7.00726 18.8332 8.33334V13.3333M22.6665 20H24.1999M19.5999 20H21.1332M16.5332 20H18.0665" stroke="#6E00B3" stroke-width="1.5"/>
</g>
<defs>
<clipPath id="clip0_0_198">
<rect width="23" height="25" fill="white" transform="translate(3.5 2.5)"/>
</clipPath>
</defs>
</svg>
