<svg width="30" height="31" viewBox="0 0 30 31" fill="none" xmlns="http://www.w3.org/2000/svg">
<path d="M17.4156 22.0414H5.33833L5.33591 9.88847L14.542 16.262C14.6766 16.3552 14.8364 16.4051 15.0001 16.4051C15.1638 16.4051 15.3236 16.3552 15.4583 16.262L24.6619 9.89169V17.2105H26.2722V9.15901C26.2716 8.73212 26.1017 8.32291 25.7999 8.02106C25.498 7.71921 25.0888 7.54934 24.6619 7.54871H5.33833C4.91125 7.54871 4.50166 7.71836 4.19967 8.02035C3.89768 8.32234 3.72803 8.73193 3.72803 9.15901V22.0414C3.72867 22.4683 3.89853 22.8775 4.20038 23.1794C4.50223 23.4812 4.91145 23.6511 5.33833 23.6517H17.4156V22.0414ZM22.8898 9.15901L15.0001 14.6211L7.11046 9.15901H22.8898Z" fill="#662AB2"/>
<path d="M23.0517 25.262C24.8303 25.262 26.2723 23.8201 26.2723 22.0414C26.2723 20.2627 24.8303 18.8208 23.0517 18.8208C21.273 18.8208 19.8311 20.2627 19.8311 22.0414C19.8311 23.8201 21.273 25.262 23.0517 25.262Z" fill="#662AB2"/>
</svg>
