<svg width="24" height="17" viewBox="0 0 24 17" fill="none" xmlns="http://www.w3.org/2000/svg">
<g clip-path="url(#clip0_0_305)">
<path d="M7.10545 10.2641C7.09921 10.2828 7.06017 10.2812 6.98835 10.2594C6.91652 10.2375 6.81815 10.2016 6.69324 10.1516L6.50587 10.0673C6.23107 9.94241 5.95938 9.78939 5.69082 9.60827C5.6471 9.57704 5.51907 9.47867 5.30672 9.31316C5.09437 9.14765 4.9757 9.05865 4.95072 9.04616C4.53226 9.68946 4.11381 10.2547 3.69535 10.7418C3.18946 11.3352 2.86156 11.6787 2.71167 11.7724C2.68669 11.7849 2.62579 11.7974 2.52899 11.8098C2.43218 11.8223 2.37441 11.8223 2.35567 11.8098C2.39314 11.7849 2.64921 11.4976 3.12388 10.9479C3.25504 10.7981 3.52204 10.4389 3.92488 9.87058C4.32772 9.30223 4.57286 8.93374 4.6603 8.76511C4.76647 8.57774 4.92574 8.27015 5.13809 7.84232C5.35044 7.4145 5.46286 7.17248 5.47535 7.11627C5.42538 7.11003 5.08188 7.21308 4.44482 7.42543C4.39486 7.43792 4.30898 7.46134 4.18719 7.49569C4.0654 7.53004 3.95767 7.55971 3.86398 7.58469C3.7703 7.60967 3.71721 7.62529 3.70472 7.63153C3.69223 7.64403 3.68598 7.67681 3.68598 7.7299C3.68598 7.78299 3.68286 7.81266 3.67662 7.8189C3.64539 7.88136 3.54858 7.9282 3.3862 7.95943C3.24255 8.00315 3.09577 8.00315 2.94588 7.95943C2.83346 7.93445 2.74602 7.86887 2.68356 7.76269C2.65858 7.72522 2.64297 7.65339 2.63672 7.54722C2.6742 7.53473 2.75071 7.51911 2.86625 7.50038C2.98179 7.48164 3.07392 7.4629 3.14262 7.44417C3.50486 7.34424 3.83276 7.24431 4.1263 7.14438C4.75086 6.92578 5.06939 6.81648 5.08188 6.81648C5.14433 6.80399 5.27861 6.7431 5.48472 6.6338C5.69082 6.5245 5.82823 6.45736 5.89693 6.43238C5.95314 6.41364 6.02028 6.38866 6.09835 6.35743C6.17642 6.3262 6.2217 6.30903 6.23419 6.3059C6.24668 6.30278 6.26542 6.30434 6.2904 6.31059C6.30289 6.38554 6.29977 6.48859 6.28103 6.61975C6.28103 6.63224 6.242 6.71655 6.16393 6.87269C6.08586 7.02883 6.0031 7.1959 5.91566 7.3739C5.82823 7.5519 5.77514 7.65652 5.7564 7.68774C5.60026 8.00002 5.35981 8.40911 5.03503 8.91501L5.63461 9.17732C5.70956 9.21479 5.94221 9.31472 6.33256 9.47711C6.72291 9.63949 6.9337 9.72693 6.96493 9.73942C6.98991 9.74567 7.0227 9.8253 7.06329 9.97832C7.10389 10.1313 7.11794 10.2266 7.10545 10.2641ZM5.18493 5.71101C5.20367 5.8047 5.19117 5.89213 5.14745 5.97333C5.07251 6.11698 4.91637 6.23564 4.67903 6.32933C4.49167 6.40427 4.3043 6.44175 4.11693 6.44175C3.95455 6.42301 3.80153 6.34182 3.65788 6.19817C3.57044 6.10448 3.51423 5.97645 3.48925 5.81406L3.49862 5.78596C3.51735 5.8047 3.57825 5.82031 3.6813 5.8328C3.78435 5.84529 3.86711 5.84529 3.92956 5.8328C3.99202 5.82031 4.17314 5.77034 4.47293 5.68291C4.69777 5.60796 4.86953 5.56424 4.98819 5.55175C5.09437 5.55175 5.15995 5.60484 5.18493 5.71101ZM11.7241 6.91954L12.3143 9.04616L11.0121 8.65269L11.7241 6.91954ZM1.34388 14.4143L7.84555 12.2408V2.5726L1.34388 4.75543V14.4143ZM12.9701 11.4445L13.9256 11.7349L12.23 5.57985L11.2931 5.28943L9.26955 10.3109L10.2251 10.6013L10.6467 9.57079L12.6234 10.1797L12.9701 11.4445ZM8.25776 2.43207L13.6259 4.15586V0.595864L8.25776 2.43207ZM11.1713 14.8265L12.6515 14.9483L12.1457 16.4472L11.7709 15.8289C10.959 16.3473 10.0971 16.6845 9.18524 16.8407C8.82299 16.9156 8.53882 16.9531 8.33271 16.9531H7.54577C7.05236 16.9531 6.42936 16.8313 5.67677 16.5877C4.92417 16.3441 4.35114 16.0787 3.95767 15.7914C3.9077 15.7477 3.88272 15.6977 3.88272 15.6415C3.88272 15.5916 3.89833 15.5494 3.92956 15.515C3.96079 15.4807 4.00139 15.4635 4.05135 15.4635C4.07633 15.4635 4.13254 15.4869 4.21998 15.5338C4.30742 15.5806 4.40267 15.6321 4.50572 15.6884C4.60877 15.7446 4.67279 15.7789 4.69777 15.7914C5.1537 16.0225 5.65179 16.2146 6.19203 16.3676C6.73228 16.5206 7.22412 16.5971 7.66756 16.5971C8.26089 16.5971 8.7824 16.5518 9.23208 16.4613C9.68176 16.3707 10.172 16.213 10.7029 15.9881C10.7966 15.9444 10.8918 15.896 10.9887 15.8429C11.0855 15.7899 11.1916 15.7305 11.3072 15.6649C11.4227 15.5994 11.5117 15.5478 11.5742 15.5104L11.1713 14.8265ZM15.3684 4.71796V14.8265L8.11724 12.5218C8.0298 12.5593 6.85875 12.9575 4.60409 13.7163C2.34943 14.4752 1.20023 14.8546 1.15652 14.8546C1.07532 14.8546 1.01911 14.814 0.987884 14.7328C0.987884 14.7265 0.984761 14.7172 0.978516 14.7047V4.60554C0.997252 4.54933 1.00974 4.5181 1.01599 4.51186C1.04722 4.47438 1.10967 4.44003 1.20336 4.4088C1.87164 4.18396 2.33693 4.02782 2.59925 3.94038V0.342917L7.82682 2.19786C7.83931 2.19786 8.34052 2.02611 9.33045 1.6826C10.3204 1.33909 11.3072 1.00027 12.2909 0.666127C13.2745 0.331987 13.7789 0.164917 13.8039 0.164917C13.9288 0.164917 13.9912 0.230496 13.9912 0.361653V4.27765L15.3684 4.71796Z" fill="white"/>
</g>
<path d="M20.2767 12.5129L17.6056 7.88637L22.9479 7.88637L20.2767 12.5129Z" fill="white"/>
<defs>
<clipPath id="clip0_0_305">
<rect width="14.3899" height="16.7882" fill="white" transform="translate(0.978516 0.164917)"/>
</clipPath>
</defs>
</svg>
