<svg width="31" height="31" viewBox="0 0 31 31" fill="none" xmlns="http://www.w3.org/2000/svg">
<path d="M16.2002 24.0632C16.2002 24.2012 16.0883 24.3132 15.9502 24.3132C15.8121 24.3132 15.7002 24.2012 15.7002 24.0632C15.7002 23.9251 15.8121 23.8132 15.9502 23.8132C16.0883 23.8132 16.2002 23.9251 16.2002 24.0632Z" fill="#6E00B3" stroke="#6E00B3" stroke-width="2"/>
<mask id="path-2-inside-1_0_194" fill="white">
<path d="M21.8525 2.97314H10.04C9.25578 3.02025 8.52181 3.37488 7.99754 3.96C7.47328 4.54513 7.20105 5.31347 7.24 6.09814V24.6856C7.20105 25.4703 7.47328 26.2387 7.99754 26.8238C8.52181 27.4089 9.25578 27.7635 10.04 27.8106H21.8525C22.6374 27.7655 23.3726 27.4114 23.8972 26.8258C24.4219 26.2403 24.6934 25.4708 24.6525 24.6856V6.09814C24.6934 5.31298 24.4219 4.54353 23.8972 3.95796C23.3726 3.37239 22.6374 3.01833 21.8525 2.97314ZM23.4025 24.6856C23.443 25.1393 23.3029 25.5906 23.0127 25.9416C22.7225 26.2926 22.3057 26.5151 21.8525 26.5606H10.04C9.58763 26.5132 9.17191 26.2902 8.88211 25.9397C8.5923 25.5891 8.45152 25.1389 8.49 24.6856V21.5606H23.4025V24.6856ZM23.4025 20.3106H8.49V6.09814C8.45152 5.64493 8.5923 5.19469 8.88211 4.84412C9.17191 4.49355 9.58763 4.2706 10.04 4.22314H21.8525C22.3057 4.26873 22.7225 4.49117 23.0127 4.84219C23.3029 5.19322 23.443 5.64451 23.4025 6.09814V20.3106Z"/>
</mask>
<path d="M21.8525 2.97314H10.04C9.25578 3.02025 8.52181 3.37488 7.99754 3.96C7.47328 4.54513 7.20105 5.31347 7.24 6.09814V24.6856C7.20105 25.4703 7.47328 26.2387 7.99754 26.8238C8.52181 27.4089 9.25578 27.7635 10.04 27.8106H21.8525C22.6374 27.7655 23.3726 27.4114 23.8972 26.8258C24.4219 26.2403 24.6934 25.4708 24.6525 24.6856V6.09814C24.6934 5.31298 24.4219 4.54353 23.8972 3.95796C23.3726 3.37239 22.6374 3.01833 21.8525 2.97314ZM23.4025 24.6856C23.443 25.1393 23.3029 25.5906 23.0127 25.9416C22.7225 26.2926 22.3057 26.5151 21.8525 26.5606H10.04C9.58763 26.5132 9.17191 26.2902 8.88211 25.9397C8.5923 25.5891 8.45152 25.1389 8.49 24.6856V21.5606H23.4025V24.6856ZM23.4025 20.3106H8.49V6.09814C8.45152 5.64493 8.5923 5.19469 8.88211 4.84412C9.17191 4.49355 9.58763 4.2706 10.04 4.22314H21.8525C22.3057 4.26873 22.7225 4.49117 23.0127 4.84219C23.3029 5.19322 23.443 5.64451 23.4025 6.09814V20.3106Z" fill="#6E00B3"/>
<path d="M21.8525 2.97314L21.9674 0.97645L21.91 0.973145H21.8525V2.97314ZM10.04 2.97314V0.973145H9.97999L9.92008 0.976743L10.04 2.97314ZM7.24 6.09814H9.24V6.04854L9.23754 5.99899L7.24 6.09814ZM7.24 24.6856L9.23754 24.7848L9.24 24.7353V24.6856H7.24ZM10.04 27.8106L9.92008 29.807L9.97999 29.8106H10.04V27.8106ZM21.8525 27.8106V29.8106H21.91L21.9674 29.8073L21.8525 27.8106ZM24.6525 24.6856H22.6525V24.7378L22.6552 24.7898L24.6525 24.6856ZM24.6525 6.09814L22.6552 5.994L22.6525 6.04604V6.09814H24.6525ZM23.4025 24.6856H21.4025V24.7747L21.4104 24.8633L23.4025 24.6856ZM23.0127 25.9416L24.5542 27.2159L23.0127 25.9416ZM21.8525 26.5606V28.5606H21.9528L22.0527 28.5506L21.8525 26.5606ZM10.04 26.5606L9.83134 28.5497L9.93539 28.5606H10.04V26.5606ZM8.49 24.6856L10.4828 24.8548L10.49 24.7704V24.6856H8.49ZM8.49 21.5606V19.5606H6.49V21.5606H8.49ZM23.4025 21.5606H25.4025V19.5606H23.4025V21.5606ZM23.4025 20.3106V22.3106H25.4025V20.3106H23.4025ZM8.49 20.3106H6.49V22.3106H8.49V20.3106ZM8.49 6.09814H10.49V6.0134L10.4828 5.92896L8.49 6.09814ZM10.04 4.22314V2.22314H9.93539L9.83134 2.23406L10.04 4.22314ZM21.8525 4.22314L22.0527 2.23319L21.9528 2.22314H21.8525V4.22314ZM23.0127 4.84219L24.5542 3.5679V3.5679L23.0127 4.84219ZM23.4025 6.09814L21.4104 5.92047L21.4025 6.00913V6.09814H23.4025ZM21.8525 0.973145H10.04V4.97314H21.8525V0.973145ZM9.92008 0.976743C8.60997 1.05544 7.38383 1.64788 6.508 2.62537L9.48709 5.29464C9.6598 5.10189 9.90158 4.98506 10.1599 4.96955L9.92008 0.976743ZM6.508 2.62537C5.63217 3.60286 5.17739 4.88645 5.24246 6.1973L9.23754 5.99899C9.22471 5.7405 9.31439 5.48739 9.48709 5.29464L6.508 2.62537ZM5.24 6.09814V24.6856H9.24V6.09814H5.24ZM5.24246 24.5865C5.17739 25.8973 5.63217 27.1809 6.508 28.1584L9.48709 25.4891C9.31439 25.2964 9.22471 25.0433 9.23754 24.7848L5.24246 24.5865ZM6.508 28.1584C7.38383 29.1359 8.60997 29.7283 9.92008 29.807L10.1599 25.8142C9.90158 25.7987 9.6598 25.6819 9.48709 25.4891L6.508 28.1584ZM10.04 29.8106H21.8525V25.8106H10.04V29.8106ZM21.9674 29.8073C23.2801 29.7318 24.5094 29.1397 25.3868 28.1605L22.4077 25.4912C22.2357 25.6831 21.9948 25.7991 21.7376 25.8139L21.9674 29.8073ZM25.3868 28.1605C26.2642 27.1812 26.7183 25.8945 26.6498 24.5815L22.6552 24.7898C22.6686 25.0471 22.5796 25.2993 22.4077 25.4912L25.3868 28.1605ZM26.6525 24.6856V6.09814H22.6525V24.6856H26.6525ZM26.6498 6.20229C26.7183 4.88928 26.2642 3.60255 25.3868 2.62332L22.4077 5.29259C22.5796 5.4845 22.6686 5.73668 22.6552 5.994L26.6498 6.20229ZM25.3868 2.62332C24.5094 1.6441 23.2801 1.05201 21.9674 0.97645L21.7376 4.96984C21.9948 4.98465 22.2357 5.10069 22.4077 5.29259L25.3868 2.62332ZM21.4104 24.8633C21.4041 24.7925 21.426 24.7221 21.4712 24.6673L24.5542 27.2159C25.1799 26.4591 25.4818 25.486 25.3946 24.508L21.4104 24.8633ZM21.4712 24.6673C21.5165 24.6125 21.5816 24.5778 21.6523 24.5707L22.0527 28.5506C23.0297 28.4523 23.9286 27.9727 24.5542 27.2159L21.4712 24.6673ZM21.8525 24.5606H10.04V28.5606H21.8525V24.5606ZM10.2487 24.5716C10.317 24.5787 10.3798 24.6124 10.4236 24.6654L7.34062 27.214C7.96402 27.9681 8.85826 28.4477 9.83134 28.5497L10.2487 24.5716ZM10.4236 24.6654C10.4674 24.7183 10.4886 24.7864 10.4828 24.8548L6.49717 24.5165C6.4144 25.4914 6.71723 26.4599 7.34062 27.214L10.4236 24.6654ZM10.49 24.6856V21.5606H6.49V24.6856H10.49ZM8.49 23.5606H23.4025V19.5606H8.49V23.5606ZM21.4025 21.5606V24.6856H25.4025V21.5606H21.4025ZM23.4025 18.3106H8.49V22.3106H23.4025V18.3106ZM10.49 20.3106V6.09814H6.49V20.3106H10.49ZM10.4828 5.92896C10.4886 5.99743 10.4674 6.06545 10.4236 6.11841L7.34062 3.56983C6.71723 4.32393 6.4144 5.29242 6.49717 6.26733L10.4828 5.92896ZM10.4236 6.11841C10.3798 6.17138 10.317 6.20506 10.2487 6.21223L9.83134 2.23406C8.85827 2.33614 7.96402 2.81572 7.34062 3.56983L10.4236 6.11841ZM10.04 6.22314H21.8525V2.22314H10.04V6.22314ZM21.6523 6.2131C21.5816 6.20599 21.5165 6.17127 21.4712 6.11649L24.5542 3.5679C23.9286 2.81107 23.0297 2.33147 22.0527 2.23319L21.6523 6.2131ZM21.4712 6.11649C21.426 6.0617 21.4041 5.99127 21.4104 5.92047L25.3946 6.27582C25.4818 5.29775 25.1799 4.32473 24.5542 3.5679L21.4712 6.11649ZM21.4025 6.09814V20.3106H25.4025V6.09814H21.4025Z" fill="#6E00B3" mask="url(#path-2-inside-1_0_194)"/>
</svg>
