<svg width="51" height="51" viewBox="0 0 51 51" fill="none" xmlns="http://www.w3.org/2000/svg">
<path d="M37.9612 13.0317C34.6309 9.69972 30.2048 7.8635 25.4878 7.86185C15.7679 7.86185 7.85781 15.7703 7.85285 25.4885C7.8512 28.5957 8.6627 31.6285 10.2064 34.3011L7.7041 43.4359L17.0521 40.9848C19.6271 42.3897 22.5277 43.1301 25.4779 43.1301H25.4862C35.2044 43.1301 43.1162 35.2216 43.1195 25.5018C43.1228 20.793 41.2899 16.3636 37.9612 13.0317ZM25.4878 40.1535H25.4828C22.8517 40.1518 20.2733 39.4461 18.0223 38.1107L17.4868 37.7933L11.9401 39.2478L13.421 33.8416L13.0723 33.2879C11.6046 30.9542 10.8311 28.2586 10.8311 25.4902C10.8344 17.4115 17.4091 10.8385 25.4944 10.8385C29.4098 10.8401 33.0889 12.3656 35.8572 15.1356C38.624 17.9057 40.1478 21.5864 40.1461 25.5018C40.1412 33.5805 33.5665 40.1535 25.4878 40.1535Z" fill="#E0E1E0"/>
<path d="M8.51562 42.4227L10.9039 33.7061C9.43125 31.1542 8.65611 28.2602 8.65776 25.2952C8.66107 16.0199 16.2109 8.47336 25.4862 8.47336C29.9883 8.47501 34.2127 10.2269 37.3894 13.4068C40.5676 16.5868 42.3162 20.8129 42.3146 25.3084C42.3113 34.5837 34.7615 42.1318 25.4878 42.1318H25.4796C22.6633 42.1302 19.8965 41.4245 17.4389 40.0841L8.51562 42.4227Z" fill="url(#paint0_linear_0_354)"/>
<path fill-rule="evenodd" clip-rule="evenodd" d="M21.1294 18.0048C20.8038 17.2793 20.46 17.2644 20.1493 17.2528C19.8948 17.2413 19.6055 17.2429 19.3146 17.2429C19.0238 17.2429 18.5527 17.352 18.1528 17.7883C17.7528 18.2247 16.6289 19.2775 16.6289 21.4211C16.6289 23.5647 18.1891 25.6356 18.4073 25.9265C18.6254 26.2174 21.4203 30.7542 25.848 32.5012C29.5271 33.9523 30.2758 33.6631 31.074 33.5904C31.8723 33.5176 33.6507 32.5376 34.0143 31.5195C34.3779 30.503 34.3779 29.6304 34.2688 29.4486C34.1597 29.2667 33.8689 29.1577 33.4342 28.9412C32.9978 28.723 30.8575 27.6702 30.4576 27.5247C30.0576 27.3793 29.7684 27.3066 29.4775 27.7429C29.1866 28.1792 28.3536 29.1593 28.0991 29.4502C27.8445 29.7411 27.5917 29.7775 27.1553 29.5593C26.719 29.3411 25.3175 28.8817 23.6531 27.3975C22.359 26.2438 21.4847 24.8175 21.2302 24.3812C20.9757 23.9449 21.2037 23.7102 21.4219 23.492C21.6169 23.297 21.8582 22.9829 22.0748 22.7284C22.2929 22.4739 22.364 22.2921 22.5094 22.0029C22.6549 21.712 22.5822 21.4575 22.4731 21.2393C22.364 21.0195 21.5178 18.8659 21.1294 18.0048Z" fill="white"/>
<path d="M37.8173 12.9755C34.5266 9.68153 30.1501 7.8668 25.486 7.86514C15.8785 7.86514 8.05934 15.681 8.05438 25.2902C8.05273 28.361 8.85597 31.3591 10.3815 34.0019L7.90894 43.0309L17.1495 40.608C19.6948 41.9963 22.5623 42.7285 25.4794 42.7301H25.486C35.0935 42.7301 42.9128 34.9126 42.9177 25.3034C42.9194 20.6476 41.1079 16.2694 37.8173 12.9755ZM25.486 39.7866H25.4811C22.8813 39.7849 20.3311 39.0875 18.1065 37.7669L17.5776 37.4529L12.0937 38.8908L13.5581 33.5457L13.2126 32.997C11.7615 30.6914 10.9963 28.0255 10.9979 25.2885C11.0013 17.3024 17.4999 10.8054 25.4927 10.8054C29.3634 10.8071 32.9995 12.316 35.7365 15.053C38.4718 17.79 39.9775 21.4293 39.9758 25.3001C39.9708 33.2879 33.4722 39.7866 25.486 39.7866Z" fill="white"/>
<defs>
<linearGradient id="paint0_linear_0_354" x1="25.4135" y1="42.4225" x2="25.4135" y2="8.47304" gradientUnits="userSpaceOnUse">
<stop stop-color="#28B04B"/>
<stop offset="1" stop-color="#71C169"/>
</linearGradient>
</defs>
</svg>
